<svg width="512" height="512" viewBox="0 0 512 512" fill="none" xmlns="http://www.w3.org/2000/svg">
  <title>Документ и весы правосудия</title>
  <g stroke="#333333" stroke-width="18" stroke-linecap="round" stroke-linejoin="round">
    <path d="M152 58H304L392 146V430C392 446.569 378.569 460 362 460H152C135.431 460 122 446.569 122 430V88C122 71.4315 135.431 58 152 58Z"/>
    <path d="M304 58V132C304 147.464 316.536 160 332 160H392"/>

    <path d="M256 186V336"/>
    <path d="M204 222H308"/>

    <path d="M204 222L172 278"/>
    <path d="M204 222L236 278"/>
    <path d="M172 278H236C236 310 221.673 326 204 326C186.327 326 172 310 172 278Z"/>

    <path d="M308 222L276 278"/>
    <path d="M308 222L340 278"/>
    <path d="M276 278H340C340 310 325.673 326 308 326C290.327 326 276 310 276 278Z"/>

    <path d="M220 364C230.297 373.274 242.881 378 256 378C269.119 378 281.703 373.274 292 364"/>
    <path d="M196 410H316"/>
  </g>
</svg>
